<svg width="302" height="301" viewBox="0 0 302 301" fill="none" xmlns="http://www.w3.org/2000/svg">
<path d="M138.315 117.624L110.941 163.142C104.875 173.24 92.5909 177.774 81.402 174.044L17.453 152.767C1.97237 147.617 -4.74851 129.481 3.64629 115.527L25.0423 79.9317L138.315 117.612V117.624ZM163.487 117.624L190.862 163.142C196.928 173.24 209.212 177.774 220.401 174.044L284.815 152.616C300.057 147.542 306.677 129.694 298.408 115.941L276.76 79.9443L163.487 117.624ZM132.526 176.078C123.187 191.603 106.8 200.508 89.5451 200.508C84.1961 200.508 78.7716 199.666 73.4351 197.883L25.0423 181.793V263.32L138.315 301V166.445L132.526 176.066V176.078ZM228.368 197.883C223.031 199.666 217.607 200.508 212.258 200.508C195.002 200.508 178.616 191.615 169.277 176.078L163.487 166.457V301L276.76 263.32V181.793L228.368 197.883ZM150.901 95.3428L231.275 68.6026L182.039 19.468L117.222 84.1393L150.901 95.3428ZM90.5142 75.2594L149.139 16.7676L132.337 0L65.3172 66.8694L90.5142 75.2594Z" fill="white"/>
</svg>
