<svg width="80" height="80" viewBox="0 0 80 80" fill="none" xmlns="http://www.w3.org/2000/svg">
<path d="M59.4305 12.5139L37.9067 0.915648C35.621 -0.305216 32.9162 -0.305216 30.6305 0.915648L9.14465 12.5139C7.58274 13.3914 6.59227 15.07 6.59227 16.9013C6.59227 18.7708 7.54465 20.4495 9.14465 21.2888L30.6686 32.8868C31.8114 33.4973 33.0686 33.8029 34.2876 33.8029C35.5067 33.8029 36.8019 33.4973 37.9067 32.8868L59.4305 21.2888C60.9924 20.4495 61.9829 18.7708 61.9829 16.9013C61.9829 15.07 60.9924 13.3914 59.4305 12.5139Z" fill="white"/>
<path d="M27.1238 36.9287L7.12381 26.9328C5.5619 26.1316 3.80952 26.246 2.32381 27.1235C0.87619 28.0392 0 29.6034 0 31.3203V50.2437C0 53.5248 1.82857 56.4625 4.7619 57.9504L24.7619 67.9463C25.4476 68.2896 26.2095 68.4804 26.9714 68.4804C27.8476 68.4804 28.7619 68.2133 29.5619 67.7555C31.0095 66.8398 31.8857 65.2756 31.8857 63.5588V44.6354C31.8476 41.3543 30.019 38.4166 27.1238 36.9287Z" fill="white"/>
<path d="M68.5737 31.3203V40.7057C66.7451 40.1716 64.8023 39.9427 62.8594 39.9427C57.6785 39.9427 52.6118 41.7358 48.6118 44.9406C43.1261 49.2518 40.0023 55.7758 40.0023 62.8339C40.0023 64.7033 40.2309 66.5728 40.7261 68.3659C40.1547 68.2896 39.5832 68.0607 39.0499 67.7173C37.6023 66.8398 36.7261 65.2756 36.7261 63.5588V44.6354C36.7261 41.3543 38.5547 38.4166 41.4499 36.9287L61.4499 26.9328C63.0118 26.1316 64.7642 26.246 66.2499 27.1235C67.6975 28.0392 68.5737 29.6034 68.5737 31.3203Z" fill="white"/>
<path d="M76.1905 52.149C76.1905 52.1109 76.1524 52.0727 76.1143 52.0346C75.9619 51.8057 75.7714 51.5768 75.581 51.386C75.5429 51.3478 75.5048 51.2715 75.4667 51.2334C72.381 47.7997 67.8476 45.6632 62.8571 45.6632C58.0571 45.6632 53.6762 47.6471 50.5524 50.8519C47.5429 53.9422 45.7143 58.1771 45.7143 62.8316C45.7143 66.0364 46.6286 69.0885 48.1905 71.6829C49.0286 73.0945 50.0952 74.3917 51.3143 75.4599C51.3905 75.4981 51.4286 75.5362 51.4667 75.5744C51.6571 75.7651 51.8476 75.9177 52.0762 76.1085C52.0762 76.1085 52.0762 76.1085 52.1143 76.1085C52.1524 76.1466 52.1905 76.1848 52.2286 76.1848C55.0857 78.5884 58.781 80 62.8571 80C69.1048 80 74.5524 76.6426 77.5238 71.6829C78.4 70.1949 79.0857 68.5544 79.5048 66.8376C79.8476 65.5404 80 64.2051 80 62.8316C80 58.7875 78.5905 55.0486 76.1905 52.149ZM69.2571 65.6167H65.7143V69.3174C65.7143 70.8817 64.4191 72.1788 62.8571 72.1788C61.2952 72.1788 60 70.8817 60 69.3174V65.6167H56.4571C54.8952 65.6167 53.6 64.3195 53.6 62.7553C53.6 61.1911 54.8952 59.8939 56.4571 59.8939H60V56.4984C60 54.9341 61.2952 53.637 62.8571 53.637C64.4191 53.637 65.7143 54.9341 65.7143 56.4984V59.8939H69.2571C70.8191 59.8939 72.1143 61.1911 72.1143 62.7553C72.1143 64.3195 70.8571 65.6167 69.2571 65.6167Z" fill="white"/>
</svg>
