<svg width="67" height="67" viewBox="0 0 67 67" fill="none" xmlns="http://www.w3.org/2000/svg">
<path d="M23.4635 0C14.7302 0 7.6302 7.1 7.6302 15.8333C7.6302 24.4 14.3302 31.3333 23.0635 31.6333C23.3302 31.6 23.5969 31.6 23.7969 31.6333C23.8635 31.6333 23.8969 31.6333 23.9635 31.6333C23.9969 31.6333 23.9969 31.6333 24.0302 31.6333C32.5635 31.3333 39.2635 24.4 39.2969 15.8333C39.2969 7.1 32.1969 0 23.4635 0Z" fill="white"/>
<path d="M40.3999 40.4963C31.0999 34.2963 15.9333 34.2963 6.56667 40.4963C2.33333 43.3297 0 47.163 0 51.263C0 55.363 2.33333 59.163 6.53333 61.963C11.2 65.0963 17.3333 66.663 23.4667 66.663C29.5999 66.663 35.7332 65.0963 40.3999 61.963C44.5999 59.1297 46.9332 55.3297 46.9332 51.1963C46.8999 47.0963 44.5999 43.2963 40.3999 40.4963Z" fill="white"/>
<path d="M60.0949 17.7938C60.6282 24.2605 56.0282 29.927 49.6615 30.6937C49.6282 30.6937 49.6282 30.6937 49.5949 30.6937H49.4949C49.2949 30.6937 49.0949 30.6937 48.9282 30.7603C45.6949 30.927 42.7282 29.8937 40.4949 27.9937C43.9282 24.9272 45.8949 20.3272 45.4949 15.3272C45.2615 12.6272 44.3282 10.1605 42.9282 8.0605C44.1949 7.42717 45.6615 7.02717 47.1615 6.89383C53.6949 6.32717 59.5282 11.1938 60.0949 17.7938Z" fill="white"/>
<path d="M66.7579 48.6347C66.4912 51.868 64.4245 54.668 60.9579 56.568C57.6245 58.4013 53.4245 59.268 49.2579 59.168C51.6579 57.0013 53.0579 54.3013 53.3245 51.4347C53.6579 47.3013 51.6912 43.3347 47.7579 40.168C45.5245 38.4013 42.9245 37.0013 40.0912 35.968C47.4579 33.8347 56.7245 35.268 62.4245 39.868C65.4912 42.3347 67.0579 45.4347 66.7579 48.6347Z" fill="white"/>
</svg>
