<svg width="80" height="80" viewBox="0 0 80 80" fill="none" xmlns="http://www.w3.org/2000/svg">
<path d="M11 13H67V73H11V13Z" fill="white"/>
<path d="M56.7883 0H23.2516C8.68433 0 0 8.68 0 23.24V56.72C0 71.32 8.68433 80 23.2516 80H56.7483C71.3155 80 79.9999 71.32 79.9999 56.76V23.24C80.0399 8.68 71.3556 0 56.7883 0ZM35.8178 62.04C34.6573 63.2 32.4562 64.32 30.8554 64.56L21.0105 65.96C20.6503 66 20.2901 66.04 19.9299 66.04C18.2891 66.04 16.7684 65.48 15.6878 64.4C14.3672 63.08 13.8069 61.16 14.127 59.04L15.5277 49.2C15.7679 47.56 16.8484 45.4 18.049 44.24L35.8979 26.4C36.218 27.24 36.5382 28.08 36.9784 29.04C37.3786 29.88 37.8188 30.76 38.2991 31.56C38.6993 32.24 39.1395 32.88 39.4997 33.36C39.9399 34.04 40.4602 34.68 40.7803 35.04C40.9804 35.32 41.1405 35.52 41.2205 35.6C42.221 36.8 43.3816 37.92 44.3821 38.76C44.6623 39.04 44.8223 39.2 44.9024 39.24C45.5027 39.72 46.103 40.2 46.6232 40.56C47.2635 41.04 47.9039 41.48 48.5842 41.84C49.3846 42.32 50.265 42.76 51.1455 43.2C52.0659 43.6 52.9064 43.96 53.7468 44.24L35.8178 62.04ZM61.5106 36.36L57.8288 40.08C57.5887 40.32 57.2685 40.44 56.9484 40.44C56.8283 40.44 56.6682 40.44 56.5882 40.4C48.4641 38.08 41.9809 31.6 39.6598 23.48C39.5397 23.04 39.6598 22.56 39.9799 22.28L43.7018 18.56C49.7848 12.48 55.5877 12.6 61.5507 18.56C64.5922 21.6 66.0729 24.52 66.0729 27.56C66.0329 30.44 64.5522 33.32 61.5106 36.36Z" fill="#5356FF"/>
</svg>
