<svg width="107" height="107" viewBox="0 0 107 107" fill="none" xmlns="http://www.w3.org/2000/svg">
<path d="M102.542 49.0417H93.625V40.125C93.625 37.6627 91.629 35.6667 89.1667 35.6667C86.7045 35.6667 84.7085 37.6627 84.7085 40.125V49.0417H75.7917C73.3295 49.0417 71.3335 51.0377 71.3335 53.5C71.3335 55.9623 73.3295 57.9583 75.7917 57.9583H84.7085V66.875C84.7085 69.3373 86.7045 71.3333 89.1667 71.3333C91.629 71.3333 93.625 69.3373 93.625 66.875V57.9583H102.542C105.004 57.9583 107 55.9623 107 53.5C107 51.0377 105.004 49.0417 102.542 49.0417Z" fill="white"/>
<path d="M40.125 53.5C54.8986 53.5 66.875 41.5236 66.875 26.75C66.875 11.9764 54.8986 0 40.125 0C25.3514 0 13.375 11.9764 13.375 26.75C13.375 41.5236 25.3514 53.5 40.125 53.5Z" fill="white"/>
<path d="M40.125 62.4167C17.9747 62.4414 0.0246602 80.3915 0 102.542C0 105.004 1.99601 107 4.45826 107H75.7915C78.2538 107 80.2498 105.004 80.2498 102.542C80.2253 80.3915 62.2752 62.4412 40.125 62.4167Z" fill="white"/>
</svg>
