<svg width="80" height="80" viewBox="0 0 80 80" fill="none" xmlns="http://www.w3.org/2000/svg">
<path d="M72.3746 33.0395L74.5202 71.2606C74.593 72.304 74.1202 72.9996 73.8656 73.3088C73.5747 73.6566 72.9564 74.1977 71.9382 74.1977H62.0098L69.8652 33.0395H72.3746ZM76.375 18.1607L76.3386 18.238C76.4114 19.1655 76.3386 20.1316 76.1204 21.0978L49.3176 73.3861C48.4448 77.2894 45.1717 79.9946 41.3895 79.9946H71.9382C76.6296 79.9946 80.339 75.7822 79.9754 70.7968L76.375 18.1607Z" fill="white"/>
<path d="M38.0048 3.63497C38.3684 2.08913 37.4592 0.504632 36.0045 0.11817C34.5498 -0.229646 33.0588 0.697863 32.6952 2.24371L30.8768 10.2435H36.4773L38.0048 3.63497Z" fill="white"/>
<path d="M62.0098 3.50833C62.3371 1.92384 61.3916 0.416635 59.9005 0.0688193C58.4458 -0.278996 56.9911 0.725804 56.6638 2.3103L55.0273 10.3101H60.6279L62.0098 3.50833Z" fill="white"/>
<path d="M75.7164 15.5768C74.5162 12.4851 71.6796 10.2823 68.1883 10.2823H60.6239L58.5873 20.2917C58.2964 21.6443 57.169 22.5718 55.9325 22.5718C55.7506 22.5718 55.5324 22.5718 55.3506 22.4945C53.8959 22.1467 52.9503 20.6008 53.2413 19.055L55.0233 10.2437H36.4759L34.1847 20.2917C33.8938 21.6056 32.7664 22.4945 31.5297 22.4945C31.3115 22.4945 31.0933 22.4559 30.8751 22.4172C29.4204 22.0308 28.5112 20.4849 28.8749 18.9004L30.8387 10.205H23.4561C19.8921 10.205 16.7281 12.6784 15.6735 16.3111L0.362777 68.6767C-1.23738 74.2804 2.65393 80 8.14542 80H55.9325C59.7147 80 62.9878 77.2948 63.8606 73.3915L76.1164 21.1032C76.3346 20.1371 76.4074 19.1709 76.3346 18.2434C76.2619 17.3159 76.08 16.3884 75.7164 15.5768ZM49.8227 59.7108H20.7286C19.2375 59.7108 18.001 58.3968 18.001 56.8123C18.001 55.2278 19.2375 53.9138 20.7286 53.9138H49.8227C51.3138 53.9138 52.5503 55.2278 52.5503 56.8123C52.5503 58.3968 51.3138 59.7108 49.8227 59.7108ZM53.4595 44.2523H24.3653C22.8742 44.2523 21.6378 42.9383 21.6378 41.3538C21.6378 39.7693 22.8742 38.4553 24.3653 38.4553H53.4595C54.9505 38.4553 56.187 39.7693 56.187 41.3538C56.187 42.9383 54.9505 44.2523 53.4595 44.2523Z" fill="white"/>
</svg>
