<svg width="80" height="80" viewBox="0 0 80 80" fill="none" xmlns="http://www.w3.org/2000/svg">
<path d="M11 13H67V66H11V13Z" fill="white"/>
<path fill-rule="evenodd" clip-rule="evenodd" d="M21.0003 1.55128C26.1951 0.3968 32.4972 0 40 0C47.5028 0 53.8048 0.3968 58.9996 1.55128C64.24 2.71588 68.5952 4.704 71.9456 8.05432C75.296 11.4046 77.284 15.7601 78.4488 21.0003C79.6032 26.1951 80 32.4972 80 40C80 47.5028 79.6032 53.8048 78.4488 58.9996C77.284 64.24 75.296 68.5952 71.9456 71.9456C68.5952 75.296 64.24 77.284 58.9996 78.4488C53.8048 79.6032 47.5028 80 40 80C32.4972 80 26.1951 79.6032 21.0003 78.4488C15.7601 77.284 11.4046 75.296 8.05432 71.9456C4.704 68.5952 2.71588 64.24 1.55128 58.9996C0.3968 53.8048 0 47.5028 0 40C0 32.4972 0.3968 26.1951 1.55128 21.0003C2.71588 15.7601 4.704 11.4046 8.05432 8.05432C11.4046 4.704 15.7601 2.71588 21.0003 1.55128ZM28 38C28 32.4772 32.4772 28 38 28C43.5228 28 48 32.4772 48 38C48 43.5228 43.5228 48 38 48C32.4772 48 28 43.5228 28 38ZM38 20C28.0589 20 20 28.0589 20 38C20 47.9412 28.0589 56 38 56C41.522 56 44.808 54.9884 47.5828 53.24L53.1716 58.8284C54.7336 60.3904 57.2664 60.3904 58.8284 58.8284C60.3904 57.2664 60.3904 54.7336 58.8284 53.1716L53.24 47.5828C54.9884 44.808 56 41.522 56 38C56 28.0589 47.9412 20 38 20Z" fill="#5356FF"/>
</svg>
