<svg width="80" height="80" viewBox="0 0 80 80" fill="none" xmlns="http://www.w3.org/2000/svg">
<path d="M56.7883 0H23.2516C8.68433 0 0 8.68 0 23.24V56.72C0 71.32 8.68433 80 23.2516 80H56.7483C71.3155 80 79.9999 71.32 79.9999 56.76V23.24C80.0399 8.68 71.3556 0 56.7883 0ZM60.0299 61H20.01C18.3692 61 17.0085 59.64 17.0085 58C17.0085 56.36 18.3692 55 20.01 55H60.0299C61.6707 55 63.0314 56.36 63.0314 58C63.0314 59.64 61.6707 61 60.0299 61ZM60.0299 43H20.01C18.3692 43 17.0085 41.64 17.0085 40C17.0085 38.36 18.3692 37 20.01 37H60.0299C61.6707 37 63.0314 38.36 63.0314 40C63.0314 41.64 61.6707 43 60.0299 43ZM60.0299 25H20.01C18.3692 25 17.0085 23.64 17.0085 22C17.0085 20.36 18.3692 19 20.01 19H60.0299C61.6707 19 63.0314 20.36 63.0314 22C63.0314 23.64 61.6707 25 60.0299 25Z" fill="#F7F1EE"/>
</svg>
